<svg xmlns="http://www.w3.org/2000/svg" viewBox="0 0 40 40">
  <defs>
    <style>
      .cls-1 {
        fill: #0060d0;
      }

      .cls-2 {
        fill: #fff;
      }
    </style>
  </defs>
  <g id="Group_4" data-name="Group 4" transform="translate(-15 -71)">
    <rect id="_20170721" data-name="20170721" class="cls-1" width="40" height="40" rx="10" transform="translate(15 71)"/>
    <g id="Group_3" data-name="Group 3" transform="translate(25 81)">
      <path id="Path_1" data-name="Path 1" class="cls-2" d="M9.1,21.8A6.245,6.245,0,1,0,0,16.25,6.2,6.2,0,0,0,3.4,21.8C.05,23.35,0,27.45,0,27.5H1.25c0-.2.05-5,5-5,4.925,0,5,4.8,5,5H12.5C12.5,27.45,12.45,23.35,9.1,21.8ZM1.25,16.25a5,5,0,1,1,5,5A5.015,5.015,0,0,1,1.25,16.25Z" transform="translate(0 -7.5)"/>
      <g id="Group_2" data-name="Group 2" transform="translate(9.275)">
        <path id="Path_2" data-name="Path 2" class="cls-2" d="M44.425,11.8A6.242,6.242,0,0,0,41.575,0,6.189,6.189,0,0,0,37.1,1.9a8.433,8.433,0,0,1,1.15.625A4.914,4.914,0,0,1,41.575,1.25a5,5,0,0,1,0,10,2.426,2.426,0,0,1-.425-.025,8.3,8.3,0,0,1-.625,1.35,6.915,6.915,0,0,1,1.05-.075c4.925,0,5,4.8,5,5h1.25C47.825,17.45,47.775,13.35,44.425,11.8Z" transform="translate(-37.1)"/>
      </g>
    </g>
  </g>
</svg>
